<svg width="56" height="56" viewBox="0 0 56 56" fill="none" xmlns="http://www.w3.org/2000/svg">
<g clip-path="url(#clip0_3326_319966)">
<path d="M41.6694 1.76228L38.9421 0.224078C38.593 -0.0268342 38.113 -0.0922894 37.6766 0.158623L14.1891 13.5661C13.4582 13.9915 13 14.7661 13 15.617V52.6429C13 53.1992 13.2509 53.6574 13.6218 53.9738L13.6982 54.0283C13.8291 54.1265 13.9709 54.2138 14.1236 54.2683L16.6655 55.7302L20.5601 51.3665L38.2548 41.2646C38.9858 40.8391 39.4439 40.0645 39.4439 39.2136V10.3587L41.6694 1.76228Z" fill="url(#paint0_linear_3326_319966)"/>
<path d="M15.7817 17.1991V54.225C15.7817 55.5886 17.2545 56.4395 18.4327 55.7632L41.0366 42.8576C41.7675 42.4321 42.2257 41.6575 42.2257 40.8066V2.75527C42.2257 1.84981 41.2438 1.28253 40.4584 1.72981L16.9708 15.1372C16.2399 15.5627 15.7817 16.3372 15.7817 17.1882V17.1991Z" fill="url(#paint1_linear_3326_319966)"/>
<path d="M40.4367 6.43137L39.793 5.875L18.4219 18.0824V52.3701L19.0546 52.9264L40.4367 40.6645V6.43137Z" fill="url(#paint2_linear_3326_319966)"/>
<path d="M33.6509 7.24951L24.3672 12.5405V17.0569L33.6509 11.755V7.24951Z" fill="url(#paint3_linear_3326_319966)"/>
<path d="M19.0542 18.6391V52.9267L40.4363 40.6648V6.43164L19.0542 18.6391Z" fill="white"/>
<path d="M24.3672 12.541L25.9708 14.701L24.3672 17.0574V12.541Z" fill="#5E5E5E"/>
<path d="M25.9708 14.7005L24.3672 12.5405L33.6509 7.24951L35.1237 9.56227L25.9708 14.7005Z" fill="url(#paint4_linear_3326_319966)"/>
<path d="M24.3672 17.0571L25.9708 14.7007L35.1237 9.5625L33.6509 11.7553L24.3672 17.0571Z" fill="url(#paint5_linear_3326_319966)"/>
<path d="M23.5052 25.8501L24.018 26.7447L25.098 26.3192L24.3234 27.6392L24.5089 28.7519L23.4507 28.5774L22.3816 29.5265L22.6107 28.261L21.7598 27.7374L22.9489 27.1265L23.5052 25.8501Z" fill="url(#paint6_linear_3326_319966)"/>
<path d="M26.9523 23.8755L27.4651 24.77L28.556 24.3446L27.7814 25.6646L27.956 26.7773L26.9087 26.6028L25.8396 27.5519L26.0578 26.2864L25.2178 25.7628L26.4069 25.1519L26.9523 23.8755Z" fill="url(#paint7_linear_3326_319966)"/>
<path d="M30.411 21.9009L30.9237 22.7845L32.0037 22.3591L31.2292 23.69L31.4147 24.8027L30.3565 24.6282L29.2874 25.5773L29.5164 24.3118L28.6655 23.7773L29.8546 23.1773L30.411 21.9009Z" fill="url(#paint8_linear_3326_319966)"/>
<path d="M33.8581 19.9263L34.3708 20.8099L35.4618 20.3845L34.6872 21.7154L34.8618 22.8281L33.8145 22.6536L32.7454 23.6027L32.9635 22.3372L32.1235 21.8027L33.3126 21.2026L33.8581 19.9263Z" fill="url(#paint9_linear_3326_319966)"/>
<path d="M37.3168 17.9517L37.8295 18.8353L38.9095 18.4098L38.135 19.7299L38.3204 20.8535L37.2622 20.679L36.1931 21.6281L36.4222 20.3626L35.5713 19.828L36.7604 19.228L37.3168 17.9517Z" fill="url(#paint10_linear_3326_319966)"/>
<g opacity="0.3">
<path d="M23.1019 34.2175C22.9165 34.2175 22.731 34.1193 22.6328 33.9448C22.4801 33.683 22.5783 33.3448 22.8292 33.2029L32.3748 27.7265C32.6366 27.5738 32.9639 27.6611 33.1166 27.9229C33.2693 28.1847 33.1711 28.5229 32.9202 28.6647L23.3747 34.1411C23.2874 34.1848 23.2001 34.2175 23.1019 34.2175Z" fill="black"/>
</g>
<g opacity="0.3">
<path d="M23.1019 37.261C22.9165 37.261 22.731 37.1628 22.6328 36.9882C22.4801 36.7264 22.5783 36.3882 22.8292 36.2464L32.3748 30.77C32.6366 30.6172 32.9639 30.7045 33.1166 30.9663C33.2693 31.2282 33.1711 31.5663 32.9202 31.7082L23.3747 37.1846C23.2874 37.2282 23.2001 37.261 23.1019 37.261Z" fill="black"/>
</g>
<g opacity="0.3">
<path d="M23.1019 40.3046C22.9165 40.3046 22.731 40.2064 22.6328 40.0319C22.4801 39.7701 22.5783 39.4319 22.8292 39.2901L36.9675 31.1845C37.2294 31.0318 37.5675 31.1191 37.7094 31.3809C37.8621 31.6427 37.7639 31.9809 37.513 32.1227L23.3747 40.2283C23.2874 40.2719 23.2001 40.3046 23.1019 40.3046Z" fill="black"/>
</g>
<g opacity="0.3">
<path d="M23.1019 43.3486C22.9165 43.3486 22.731 43.2504 22.6328 43.0758C22.4801 42.814 22.5783 42.4758 22.8292 42.334L36.9675 34.2285C37.2294 34.0757 37.5675 34.163 37.7094 34.4248C37.8621 34.6867 37.7639 35.0248 37.513 35.1667L23.3747 43.2722C23.2874 43.3159 23.2001 43.3486 23.1019 43.3486Z" fill="black"/>
</g>
<path d="M49.8081 44.222C52.3783 39.374 51.741 34.0014 48.3846 32.222C45.0283 30.4427 40.2239 32.9304 37.6537 37.7784C35.0835 42.6265 35.7209 47.9991 39.0772 49.7784C42.4336 51.5578 47.238 49.0701 49.8081 44.222Z" fill="#29D1FF"/>
<path d="M45.2214 42.3597L43.1069 43.1495L42.6738 36.857L45.578 35.8125L45.2214 42.3597Z" fill="white"/>
<path d="M44.9283 45.7711C45.4601 45.1337 45.5321 44.3174 45.0892 43.9479C44.6463 43.5783 43.8561 43.7954 43.3243 44.4328C42.7924 45.0702 42.7204 45.8865 43.1633 46.2561C43.6063 46.6256 44.3965 46.4085 44.9283 45.7711Z" fill="white"/>
</g>
<defs>
<linearGradient id="paint0_linear_3326_319966" x1="27.3347" y1="-10.4779" x2="27.3347" y2="55.7411" gradientUnits="userSpaceOnUse">
<stop stop-color="#E6E6E6"/>
<stop offset="0.63" stop-color="#B4C1C9"/>
<stop offset="1" stop-color="#919EA6"/>
</linearGradient>
<linearGradient id="paint1_linear_3326_319966" x1="29.0037" y1="-8.65577" x2="29.0037" y2="56.0032" gradientUnits="userSpaceOnUse">
<stop stop-color="#EDF0F3"/>
<stop offset="1" stop-color="#C1CBD3"/>
</linearGradient>
<linearGradient id="paint2_linear_3326_319966" x1="39.1712" y1="-2.24146" x2="26.822" y2="37.8281" gradientUnits="userSpaceOnUse">
<stop stop-color="white"/>
<stop offset="1" stop-color="#EDEDED"/>
</linearGradient>
<linearGradient id="paint3_linear_3326_319966" x1="30.4873" y1="29.5479" x2="28.3054" y2="3.91129" gradientUnits="userSpaceOnUse">
<stop stop-color="#A9B5BA"/>
<stop offset="1" stop-color="#DEE4E9"/>
</linearGradient>
<linearGradient id="paint4_linear_3326_319966" x1="31.0873" y1="-4.66335" x2="29.1236" y2="18.3769" gradientUnits="userSpaceOnUse">
<stop stop-color="#989898"/>
<stop offset="1" stop-color="#737373"/>
</linearGradient>
<linearGradient id="paint5_linear_3326_319966" x1="31.1309" y1="-2.91764" x2="29.0909" y2="20.9954" gradientUnits="userSpaceOnUse">
<stop stop-color="#666666"/>
<stop offset="1" stop-color="#3C3B3B"/>
</linearGradient>
<linearGradient id="paint6_linear_3326_319966" x1="42.9871" y1="18.3913" x2="43.2116" y2="21.0665" gradientUnits="userSpaceOnUse">
<stop stop-color="#FFDD2C"/>
<stop offset="1" stop-color="#FFD02C"/>
</linearGradient>
<linearGradient id="paint7_linear_3326_319966" x1="46.1927" y1="16.5151" x2="46.4137" y2="19.1809" gradientUnits="userSpaceOnUse">
<stop stop-color="#FFDD2C"/>
<stop offset="1" stop-color="#FFD02C"/>
</linearGradient>
<linearGradient id="paint8_linear_3326_319966" x1="49.3846" y1="14.6333" x2="49.6055" y2="17.299" gradientUnits="userSpaceOnUse">
<stop stop-color="#FFDD2C"/>
<stop offset="1" stop-color="#FFD02C"/>
</linearGradient>
<linearGradient id="paint9_linear_3326_319966" x1="52.5758" y1="12.7514" x2="52.7967" y2="15.4172" gradientUnits="userSpaceOnUse">
<stop stop-color="#FFDD2C"/>
<stop offset="1" stop-color="#FFD02C"/>
</linearGradient>
<linearGradient id="paint10_linear_3326_319966" x1="55.7785" y1="10.8656" x2="55.9995" y2="13.5313" gradientUnits="userSpaceOnUse">
<stop stop-color="#FFDD2C"/>
<stop offset="1" stop-color="#FFD02C"/>
</linearGradient>
<clipPath id="clip0_3326_319966">
<rect width="56" height="56" fill="white"/>
</clipPath>
</defs>
</svg>
