<svg width="56" height="56" viewBox="0 0 56 56" fill="none" xmlns="http://www.w3.org/2000/svg">
<path d="M35.9335 17.3788L29.1836 13.4829C30.3389 14.1499 31.056 15.5682 31.062 17.5833C31.074 21.6396 28.2007 26.5817 24.6449 28.6193L31.3949 32.5152C34.9494 30.4775 37.8228 25.5355 37.812 21.4791C37.806 19.464 37.0901 18.0457 35.9335 17.3788Z" fill="url(#paint0_linear_417_17629)"/>
<path d="M20.0645 29.0654L26.8144 32.9613C27.9853 33.6366 29.6064 33.5415 31.395 32.5155L24.6451 28.6196C22.8564 29.6456 21.2354 29.7407 20.0645 29.0654Z" fill="#C0C8CC"/>
<path d="M41.0527 8.81539L34.3028 4.91953C31.8137 3.4834 28.3621 3.68312 24.5801 5.84683L31.3301 9.74269C35.1121 7.57898 38.5637 7.37926 41.0527 8.81539Z" fill="#D1DBE1"/>
<path d="M31.3303 9.74274C23.8608 14.0345 17.7154 24.4881 17.7501 33.0074C17.7561 34.8608 18.4266 38.9552 20.4283 41.3923C22.9461 44.4572 30.2983 50.1708 31.3758 51.0018C32.5898 48.8583 39.8856 34.7454 42.3771 28.8095C44.3585 24.0886 45.0038 19.2393 44.999 17.3859C44.9834 8.85467 38.7998 5.47002 31.3303 9.74274ZM31.3949 32.5152C27.8392 34.5529 24.9479 32.917 24.9359 28.8606C24.9239 24.8043 27.7973 19.8622 31.353 17.8245C34.9076 15.7869 37.8001 17.4227 37.8121 21.4791C37.824 25.5354 34.9507 30.4775 31.3949 32.5152Z" fill="url(#paint1_linear_417_17629)"/>
<path d="M31.3305 9.74303L24.5805 5.84717C17.111 10.1389 10.9657 20.5925 11.0004 29.1118C11.0064 30.9652 11.6768 35.0596 13.6786 37.4967C16.1964 40.5616 23.5485 46.2752 24.626 47.1062L31.376 51.0021C30.2997 50.1723 22.9463 44.4575 20.4285 41.3926C18.4268 38.9555 17.7563 34.8611 17.7504 33.0076C17.7156 24.4883 23.861 14.0348 31.3305 9.74303Z" fill="url(#paint2_linear_417_17629)"/>
<defs>
<linearGradient id="paint0_linear_417_17629" x1="34.5" y1="17.9999" x2="26.5" y2="31.9999" gradientUnits="userSpaceOnUse">
<stop stop-color="#647787"/>
<stop offset="1" stop-color="#D0D5D8"/>
</linearGradient>
<linearGradient id="paint1_linear_417_17629" x1="25.5" y1="10.4999" x2="31.3745" y2="51.0018" gradientUnits="userSpaceOnUse">
<stop stop-color="#9CA9B0"/>
<stop offset="1" stop-color="#96A4B0"/>
</linearGradient>
<linearGradient id="paint2_linear_417_17629" x1="21.1881" y1="9.50012" x2="21.1881" y2="51.0021" gradientUnits="userSpaceOnUse">
<stop stop-color="#D0DBE0"/>
<stop offset="1" stop-color="#647788"/>
</linearGradient>
</defs>
</svg>
